# xmcd CD database file
#
# Track frame offsets:
#	150
#	28045
#	43515
#
# Disc length: 810 seconds
#
# Revision: 0
# Processed by: cddbd v1.5.1PL2 Copyright (c) Steve Scherf et al.
# Submitted via: CDex 1.51
#
DISCID=1c032803
DTITLE=Lisa Johnson - Listen
DYEAR=1900
DGENRE=Eurodance
TTITLE0=Listen (Extended)
TTITLE1=Listen (Instrumental)
TTITLE2=Listen (Radio version)
EXTD=
EXTT0=
EXTT1=
EXTT2=
PLAYORDER=
